<svg xmlns="http://www.w3.org/2000/svg" enable-background="new 0 0 50 50" viewBox="0 0 50 50"><path fill="#E7E3E6" d="M46.8942,5.31252H3.10575c-1.16296,0-2.10577,0.94275-2.10577,2.10571V34.6894
		c0,1.16296,0.94281,2.10571,2.10577,2.10571H46.8942c1.16302,0,2.10577-0.94275,2.10577-2.10571V7.41823
		C48.99997,6.25526,48.05722,5.31252,46.8942,5.31252z"/><rect width="42.677" height="23.749" x="3.662" y="7.835" fill="#656766"/><rect width="21.339" height="11.874" x="24.999" y="7.835" fill="#806292"/><rect width="21.339" height="11.874" x="24.999" y="19.709" fill="#4E4C4D"/><rect width="21.339" height="11.874" x="3.662" y="7.835" fill="#656766"/><rect width="21.339" height="11.874" x="3.662" y="19.709" fill="#656766"/><path fill="#FFF" d="M39.7464 13.51671l-1.22293-1.22293c-.14081-.14081-.36892-.14081-.50973 0-.14081.14081-.14081.36892 0 .50973l.96806.96806-.96806.96806c-.14081.14081-.14081.36892 0 .50973.0704.07041.16263.10561.25486.10561.09223 0 .18446-.0352.25486-.10561l1.22293-1.22293C39.88721 13.88563 39.88721 13.65752 39.7464 13.51671zM33.56346 12.29378c-.14081-.14081-.36892-.14081-.50973 0l-1.22363 1.22293c-.06759.06759-.10561.15911-.10561.25486 0 .09575.03802.18728.10561.25486l1.22363 1.22293c.0704.07041.16263.10561.25486.10561.09223 0 .18446-.0352.25486-.10561.14081-.14081.14081-.36892 0-.50973l-.96877-.96806.96877-.96806C33.70427 12.6627 33.70427 12.43459 33.56346 12.29378zM37.14424 11.12788c-.17742-.09012-.39427-.02042-.48579.1563l-2.38179 4.64601c-.09082.17742-.02042.39497.1563.48579.0528.02675.10913.03943.16475.03943.13095 0 .25698-.07181.32104-.19572l2.38179-4.64601C37.39136 11.43625 37.32096 11.2187 37.14424 11.12788z"/><path fill="#85BD57" d="M36.62082,22.39944h-6.43956c-0.19925,0-0.36047-0.16123-0.36047-0.36047s0.16123-0.36047,0.36047-0.36047
			h6.43956c0.19925,0,0.36047,0.16123,0.36047,0.36047S36.82007,22.39944,36.62082,22.39944z"/><path fill="#E7E3E6" d="M41.39532 22.39944h-2.88694c-.19925 0-.36047-.16123-.36047-.36047s.16122-.36047.36047-.36047h2.88694c.19925 0 .36047.16123.36047.36047S41.59456 22.39944 41.39532 22.39944zM33.14917 24.20321h-2.96791c-.19925 0-.36047-.16123-.36047-.36047s.16123-.36047.36047-.36047h2.96791c.19925 0 .36047.16123.36047.36047S33.34842 24.20321 33.14917 24.20321z"/><path fill="#53B1E2" d="M41.39532,24.20321h-6.35895c-0.19925,0-0.36047-0.16123-0.36047-0.36047s0.16122-0.36047,0.36047-0.36047
			h6.35895c0.19925,0,0.36047,0.16123,0.36047,0.36047S41.59456,24.20321,41.39532,24.20321z"/><path fill="#BA8C5C" d="M31.26162,26.00698h-1.08036c-0.19925,0-0.36047-0.16123-0.36047-0.36047
			c0-0.19924,0.16123-0.36047,0.36047-0.36047h1.08036c0.19925,0,0.36047,0.16123,0.36047,0.36047
			C31.62209,25.84575,31.46087,26.00698,31.26162,26.00698z"/><path fill="#E7E3E6" d="M41.39532,26.00698h-8.24615c-0.19925,0-0.36047-0.16123-0.36047-0.36047
			c0-0.19924,0.16123-0.36047,0.36047-0.36047h8.24615c0.19925,0,0.36047,0.16123,0.36047,0.36047
			C41.75579,25.84575,41.59456,26.00698,41.39532,26.00698z"/><path fill="#FFC966" d="M36.32829,27.81075h-6.14703c-0.19925,0-0.36047-0.16123-0.36047-0.36047
			c0-0.19924,0.16123-0.36047,0.36047-0.36047h6.14703c0.19925,0,0.36047,0.16123,0.36047,0.36047
			C36.68877,27.64952,36.52754,27.81075,36.32829,27.81075z"/><path fill="#9A7CA8" d="M41.39532,27.81075h-3.17947c-0.19925,0-0.36047-0.16123-0.36047-0.36047
			c0-0.19924,0.16123-0.36047,0.36047-0.36047h3.17947c0.19925,0,0.36047,0.16123,0.36047,0.36047
			C41.75579,27.64952,41.59456,27.81075,41.39532,27.81075z"/><path fill="#E7E3E6" d="M33.40122 29.61381h-3.21996c-.19925 0-.36047-.16123-.36047-.36047s.16123-.36047.36047-.36047h3.21996c.19925 0 .36047.16123.36047.36047S33.60046 29.61381 33.40122 29.61381zM41.39532 29.61381h-6.10655c-.19925 0-.36047-.16123-.36047-.36047s.16123-.36047.36047-.36047h6.10655c.19925 0 .36047.16123.36047.36047S41.59456 29.61381 41.39532 29.61381z"/><path fill="#4E4C4D" d="M7.38695,9.40017H5.81158c-0.6698,0-1.21283,0.54303-1.21283,1.21283v18.19232
			c0,0.66986,0.54303,1.21283,1.21283,1.21283h1.57538c0.66986,0,1.21283-0.54297,1.21283-1.21283V10.613
			C8.59978,9.9432,8.05681,9.40017,7.38695,9.40017z"/><path fill="#D2D2D2" d="M7.24993 10.2795H5.9486c-.30511 0-.55249.24738-.55249.55249v1.30127c0 .30518.24738.55255.55249.55255h1.30133c.30511 0 .55249-.24738.55249-.55255v-1.30127C7.80242 10.52688 7.55504 10.2795 7.24993 10.2795zM7.24993 13.57009H5.9486c-.30511 0-.55249.24738-.55249.55249v1.30127c0 .30518.24738.55261.55255.55261h1.30127c.30511 0 .55249-.24738.55249-.55255v-1.30133C7.80242 13.81746 7.55504 13.57009 7.24993 13.57009zM7.24987 16.86068H5.9486c-.30511 0-.55249.24738-.55249.55249v1.30133c0 .30518.24738.55255.55249.55255h1.30133c.30511 0 .55249-.24738.55249-.55255v-1.30127C7.80242 17.10805 7.55504 16.86068 7.24987 16.86068zM7.24993 20.15133H5.9486c-.30511 0-.55249.24738-.55249.55249v1.30127c0 .30518.24738.55255.55249.55255h1.30133c.30511 0 .55249-.24738.55249-.55255v-1.30127C7.80242 20.3987 7.55504 20.15133 7.24993 20.15133zM7.24993 23.44191H5.9486c-.30511 0-.55249.24738-.55249.55249v1.30127c0 .30518.24738.55261.55255.55261h1.30121c.30518 0 .55255-.24744.55255-.55261V23.9944C7.80242 23.68929 7.55504 23.44191 7.24993 23.44191zM7.24993 26.7325H5.9486c-.30511 0-.55249.24738-.55249.55249v1.30133c0 .30518.24738.55255.55249.55255h1.30133c.30511 0 .55249-.24738.55249-.55255v-1.30133C7.80242 26.97988 7.55504 26.7325 7.24993 26.7325z"/><path fill="#EC6E62" d="M19.8386,28.34957l1.53751-1.53751c0.17083-0.17083,0.17083-0.4478,0-0.61863l-1.75513-1.75514
		l1.58382-0.65605c0.48512-0.20094,0.42679-0.90604-0.08475-1.02453l-6.10993-1.41537
		c-0.38898-0.09011-0.73776,0.25867-0.64765,0.64766l1.41606,6.11286c0.11843,0.51125,0.82297,0.56989,1.02429,0.08525
		l0.66203-1.59369l1.75513,1.75514C19.3908,28.5204,19.66777,28.5204,19.8386,28.34957z"/><rect width="17.952" height="4.339" x="16.024" y="36.795" fill="#D2D2D2"/><path fill="#E7E3E6" d="M35.04778,41.13393H14.95216c-0.98129,0-1.77678,0.79549-1.77678,1.77678v0
		c0,0.98129,0.79549,1.77678,1.77678,1.77678h20.09562c0.98129,0,1.77678-0.79549,1.77678-1.77678v0
		C36.82456,41.92942,36.02907,41.13393,35.04778,41.13393z"/></svg>